# xmcd
#
# Track frame offsets: 
#        150
#        17013
#        32929
#        50188
#        73369
#        96700
#        114724
#        131038
#        147830
#        165301
#
# Disc length: 2362 seconds
#
# Revision: 0
# Processed by: cddbd v1.5.2PL0 Copyright (c) Steve Scherf et al.
# Submitted via: ExactAudioCopy v1.0b3
#
DISCID=9b09380a
DTITLE=Gram Rabbit - Welcome to the country
DYEAR=2012
DGENRE=Electronic
TTITLE0=Wild Imagination
TTITLE1=Country Jo
TTITLE2=Eeyore
TTITLE3=I've Been Thinking
TTITLE4=Olde October Moon
TTITLE5=Rider On A White Horse
TTITLE6=Too Drive To Drunk
TTITLE7=Lullaby Song
TTITLE8=Honky Tonkin'
TTITLE9=Din Ho
EXTD=
EXTT0=
EXTT1=
EXTT2=
EXTT3=
EXTT4=
EXTT5=
EXTT6=
EXTT7=
EXTT8=
EXTT9=
PLAYORDER=
